<?xml version="1.0" encoding="UTF-8"?>
<svg width="422px" height="118px" viewBox="0 0 211 59" version="1.1" xmlns="http://www.w3.org/2000/svg" xmlns:xlink="http://www.w3.org/1999/xlink">
    <title>Untitled</title>
    <g id="Page-1" stroke="none" stroke-width="1" fill="none" fill-rule="evenodd">
        <g id="logo.gray.title.transparent" transform="translate(12, 12)" fill="#000000" fill-rule="nonzero">
            <path d="M19.075,1.4 L15.925,1.4 C15.7317,1.4 15.575,1.2433 15.575,1.05 L15.575,0.35 C15.575,0.1567 15.7317,0 15.925,0 L19.075,0 C19.2683,0 19.425,0.1567 19.425,0.35 L19.425,1.05 C19.425,1.2433 19.2683,1.4 19.075,1.4 Z" id="Path"></path>
            <path d="M16.7654,6.3386 L16.4932,3.88865 C16.4702,3.68132 16.6325,3.5 16.8411,3.5 L18.159,3.5 C18.3676,3.5 18.5299,3.68132 18.5068,3.88865 L18.2346,6.3386 C18.2149,6.5159 18.0651,6.65 17.8867,6.65 L17.1133,6.65 C16.9349,6.65 16.7851,6.5159 16.7654,6.3386 Z" id="Path"></path>
            <path d="M16.975,11.2 L16.975,9.45 C16.975,9.2567 17.1317,9.1 17.325,9.1 L17.675,9.1 C17.8683,9.1 18.025,9.2567 18.025,9.45 L18.025,11.2 C18.025,11.3933 17.8683,11.55 17.675,11.55 L17.325,11.55 C17.1317,11.55 16.975,11.3933 16.975,11.2 Z" id="Path"></path>
            <path d="M12.7939,2.0224 L9.88371,3.22785 C9.70513,3.30182 9.50039,3.21702 9.42641,3.03843 L9.15854,2.39172 C9.08456,2.21313 9.16937,2.00839 9.34795,1.93442 L12.2582,0.72897 C12.4368,0.655 12.6415,0.7398 12.7155,0.91839 L12.9833,1.5651 C13.0573,1.74369 12.9725,1.94843 12.7939,2.0224 Z" id="Path"></path>
            <path d="M12.5501,7.469 L11.361,5.30963 C11.2604,5.1269 11.3409,4.89727 11.5337,4.81744 L12.7513,4.3131 C12.944,4.23327 13.1633,4.33868 13.2214,4.53905 L13.9074,6.9067 C13.9571,7.078 13.87,7.2592 13.7052,7.3275 L12.9906,7.6235 C12.8258,7.6917 12.6361,7.6252 12.5501,7.469 Z" id="Path"></path>
            <path d="M14.6041,11.88 L13.9344,10.2633 C13.8604,10.0847 13.9452,9.8799 14.1238,9.806 L14.4472,9.672 C14.6257,9.5981 14.8305,9.6829 14.9045,9.8614 L15.5742,11.4782 C15.6481,11.6568 15.5633,11.8616 15.3847,11.9355 L15.0614,12.0695 C14.8828,12.1434 14.6781,12.0586 14.6041,11.88 Z" id="Path"></path>
            <path d="M7.22929,5.0014 L5.0019,7.2288 C4.86522,7.3655 4.64361,7.3655 4.50693,7.2288 L4.01195,6.7338 C3.87527,6.5971 3.87527,6.3755 4.01195,6.2388 L6.23934,4.01146 C6.37602,3.87477 6.59763,3.87477 6.73431,4.01146 L7.22929,4.50643 C7.36597,4.64311 7.36597,4.86472 7.22929,5.0014 Z" id="Path"></path>
            <path d="M9.08831,10.1267 L7.16341,8.5868 C7.00052,8.4565 6.98706,8.2135 7.13456,8.066 L8.06647,7.1341 C8.21398,6.9866 8.45695,7 8.58726,7.1629 L10.1272,9.0878 C10.2386,9.2271 10.2275,9.4278 10.1014,9.5539 L9.55444,10.1009 C9.42833,10.227 9.22757,10.2381 9.08831,10.1267 Z" id="Path"></path>
            <path d="M12.674,13.416 L11.4366,12.1785 C11.2999,12.0419 11.2999,11.8202 11.4366,11.6836 L11.6841,11.4361 C11.8207,11.2994 12.0423,11.2994 12.179,11.4361 L13.4165,12.6735 C13.5532,12.8102 13.5532,13.0318 13.4165,13.1685 L13.169,13.416 C13.0323,13.5527 12.8107,13.5527 12.674,13.416 Z" id="Path"></path>
            <path d="M3.22828,9.8832 L2.02283,12.7935 C1.94886,12.972 1.74412,13.0568 1.56553,12.9829 L0.918817,12.715 C0.740231,12.641 0.655426,12.4363 0.729398,12.2577 L1.93485,9.3475 C2.00882,9.1689 2.21356,9.0841 2.39215,9.1581 L3.03886,9.4259 C3.21745,9.4999 3.30225,9.7046 3.22828,9.8832 Z" id="Path"></path>
            <path d="M6.90715,13.907 L4.53948,13.2209 C4.33911,13.1628 4.2337,12.9435 4.31353,12.7508 L4.81787,11.5332 C4.8977,11.3405 5.12733,11.2599 5.31006,11.3605 L7.46939,12.5496 C7.62561,12.6356 7.69216,12.8254 7.62392,12.9901 L7.32792,13.7047 C7.25967,13.8695 7.07845,13.9566 6.90715,13.907 Z" id="Path"></path>
            <path d="M11.4787,15.5737 L9.86187,14.904 C9.68329,14.83 9.59848,14.6253 9.67245,14.4467 L9.80639,14.1233 C9.88037,13.9447 10.0851,13.8599 10.2637,13.9339 L11.8805,14.6036 C12.0591,14.6776 12.1439,14.8823 12.0699,15.0609 L11.936,15.3843 C11.862,15.5628 11.6572,15.6476 11.4787,15.5737 Z" id="Path"></path>
            <path d="M1.4,15.9248 L1.4,19.0748 C1.4,19.2681 1.2433,19.4248 1.05,19.4248 L0.35,19.4248 C0.1567,19.4248 0,19.2681 0,19.0748 L0,15.9248 C0,15.7315 0.156701,15.5748 0.35,15.5748 L1.05,15.5748 C1.2433,15.5748 1.4,15.7315 1.4,15.9248 Z" id="Path"></path>
            <path d="M6.33865,18.2344 L3.88865,18.5066 C3.68132,18.5297 3.5,18.3674 3.5,18.1588 L3.5,16.8408 C3.5,16.6322 3.68132,16.47 3.88865,16.493 L6.33865,16.7652 C6.5159,16.7849 6.65,16.9347 6.65,17.1131 L6.65,17.8865 C6.65,18.0649 6.5159,18.2147 6.33865,18.2344 Z" id="Path"></path>
            <path d="M11.2,18.0248 L9.45,18.0248 C9.2567,18.0248 9.1,17.8681 9.1,17.6748 L9.1,17.3248 C9.1,17.1315 9.2567,16.9748 9.45,16.9748 L11.2,16.9748 C11.3933,16.9748 11.55,17.1315 11.55,17.3248 L11.55,17.6748 C11.55,17.8681 11.3933,18.0248 11.2,18.0248 Z" id="Path"></path>
            <path d="M2.02283,22.2063 L3.22828,25.1165 C3.30225,25.2951 3.21744,25.4998 3.03886,25.5738 L2.39214,25.8416 C2.21356,25.9156 2.00882,25.8308 1.93485,25.6522 L0.729395,22.742 C0.655423,22.5634 0.740229,22.3587 0.918814,22.2847 L1.56553,22.0168 C1.74411,21.9429 1.94885,22.0277 2.02283,22.2063 Z" id="Path"></path>
            <path d="M7.46938,22.4501 L5.31006,23.6392 C5.12733,23.7398 4.8977,23.6592 4.81787,23.4665 L4.31353,22.2489 C4.2337,22.0562 4.33911,21.8369 4.53947,21.7788 L6.90715,21.0927 C7.07845,21.0431 7.25967,21.1302 7.32792,21.295 L7.62391,22.0096 C7.69216,22.1743 7.62561,22.3641 7.46938,22.4501 Z" id="Path"></path>
            <path d="M11.8805,20.3961 L10.2637,21.0658 C10.0851,21.1398 9.88036,21.055 9.80639,20.8764 L9.67245,20.553 C9.59848,20.3744 9.68328,20.1697 9.86187,20.0957 L11.4787,19.426 C11.6572,19.3521 11.862,19.4369 11.936,19.6154 L12.0699,19.9388 C12.1439,20.1174 12.0591,20.3221 11.8805,20.3961 Z" id="Path"></path>
            <path d="M5.00189,27.7705 L7.22928,29.9979 C7.36596,30.1346 7.36596,30.3562 7.22928,30.4929 L6.7343,30.9879 C6.59762,31.1245 6.37601,31.1245 6.23933,30.9879 L4.01194,28.7605 C3.87526,28.6238 3.87526,28.4022 4.01194,28.2655 L4.50692,27.7705 C4.6436,27.6338 4.86521,27.6338 5.00189,27.7705 Z" id="Path"></path>
            <path d="M10.1272,25.9115 L8.58725,27.8364 C8.45694,27.9993 8.21397,28.0128 8.06646,27.8653 L7.13456,26.9333 C6.98705,26.7858 7.00051,26.5429 7.1634,26.4126 L9.0883,24.8726 C9.22756,24.7612 9.42832,24.7723 9.55443,24.8985 L10.1014,25.4454 C10.2275,25.5715 10.2386,25.7722 10.1272,25.9115 Z" id="Path"></path>
            <path d="M13.4165,22.3258 L12.179,23.5632 C12.0423,23.6999 11.8207,23.6999 11.684,23.5632 L11.4366,23.3158 C11.2999,23.1791 11.2999,22.9575 11.4366,22.8208 L12.674,21.5833 C12.8107,21.4467 13.0323,21.4467 13.169,21.5833 L13.4165,21.8308 C13.5531,21.9675 13.5531,22.1891 13.4165,22.3258 Z" id="Path"></path>
            <path d="M9.88366,31.7715 L12.7939,32.9769 C12.9725,33.0509 13.0573,33.2556 12.9833,33.4342 L12.7154,34.0809 C12.6414,34.2595 12.4367,34.3443 12.2581,34.2704 L9.34791,33.0649 C9.16932,32.9909 9.08451,32.7862 9.15849,32.6076 L9.42637,31.9609 C9.50034,31.7823 9.70508,31.6975 9.88366,31.7715 Z" id="Path"></path>
            <path d="M13.9074,28.0926 L13.2213,30.4603 C13.1633,30.6606 12.9439,30.7661 12.7512,30.6862 L11.5336,30.1819 C11.3409,30.1021 11.2603,29.8724 11.361,29.6897 L12.55,27.5304 C12.6361,27.3741 12.8258,27.3076 12.9906,27.3758 L13.7052,27.6718 C13.8699,27.7401 13.957,27.9213 13.9074,28.0926 Z" id="Path"></path>
            <path d="M15.5741,23.5211 L14.9044,25.1379 C14.8304,25.3165 14.6257,25.4013 14.4471,25.3273 L14.1238,25.1934 C13.9452,25.1194 13.8604,24.9147 13.9343,24.7361 L14.604,23.1193 C14.678,22.9407 14.8827,22.8559 15.0613,22.9299 L15.3847,23.0638 C15.5633,23.1378 15.6481,23.3425 15.5741,23.5211 Z" id="Path"></path>
            <path d="M15.925,33.6 L19.075,33.6 C19.2683,33.6 19.425,33.7567 19.425,33.95 L19.425,34.65 C19.425,34.8433 19.2683,35 19.075,35 L15.925,35 C15.7317,35 15.575,34.8433 15.575,34.65 L15.575,33.95 C15.575,33.7567 15.7317,33.6 15.925,33.6 Z" id="Path"></path>
            <path d="M18.2346,28.6614 L18.5068,31.1114 C18.5298,31.3187 18.3675,31.5 18.1589,31.5 L16.841,31.5 C16.6324,31.5 16.4701,31.3187 16.4932,31.1114 L16.7654,28.6614 C16.7851,28.4841 16.9349,28.35 17.1133,28.35 L17.8867,28.35 C18.0651,28.35 18.2149,28.4841 18.2346,28.6614 Z" id="Path"></path>
            <path d="M18.025,23.8 L18.025,25.55 C18.025,25.7433 17.8683,25.9 17.675,25.9 L17.325,25.9 C17.1317,25.9 16.975,25.7433 16.975,25.55 L16.975,23.8 C16.975,23.6067 17.1317,23.45 17.325,23.45 L17.675,23.45 C17.8683,23.45 18.025,23.6067 18.025,23.8 Z" id="Path"></path>
            <path d="M22.2061,32.9776 L25.1163,31.7721 C25.2949,31.6982 25.4996,31.783 25.5736,31.9616 L25.8415,32.6083 C25.9154,32.7869 25.8306,32.9916 25.652,33.0656 L22.7418,34.271 C22.5632,34.345 22.3585,34.2602 22.2845,34.0816 L22.0167,33.4349 C21.9427,33.2563 22.0275,33.0516 22.2061,32.9776 Z" id="Path"></path>
            <path d="M22.4499,27.531 L23.639,29.6904 C23.7396,29.8731 23.6591,30.1027 23.4663,30.1826 L22.2487,30.6869 C22.056,30.7667 21.8367,30.6613 21.7786,30.461 L21.0926,28.0933 C21.0429,27.922 21.13,27.7408 21.2948,27.6725 L22.0094,27.3765 C22.1742,27.3083 22.3639,27.3748 22.4499,27.531 Z" id="Path"></path>
            <path d="M20.3959,23.12 L21.0656,24.7367 C21.1396,24.9153 21.0548,25.1201 20.8762,25.194 L20.5528,25.328 C20.3743,25.4019 20.1695,25.3171 20.0955,25.1386 L19.4258,23.5218 C19.3519,23.3432 19.4367,23.1384 19.6153,23.0645 L19.9386,22.9305 C20.1172,22.8566 20.3219,22.9414 20.3959,23.12 Z" id="Path"></path>
            <path d="M27.7707,29.9986 L29.9981,27.7712 C30.1348,27.6345 30.3564,27.6345 30.4931,27.7712 L30.988,28.2662 C31.1247,28.4029 31.1247,28.6245 30.988,28.7612 L28.7607,30.9885 C28.624,31.1252 28.4024,31.1252 28.2657,30.9885 L27.7707,30.4936 C27.634,30.3569 27.634,30.1353 27.7707,29.9986 Z" id="Path"></path>
            <path d="M25.9117,24.8733 L27.8366,26.4132 C27.9995,26.5435 28.0129,26.7865 27.8654,26.934 L26.9335,27.8659 C26.786,28.0134 26.5431,28 26.4127,27.8371 L24.8728,25.9122 C24.7614,25.7729 24.7725,25.5722 24.8986,25.4461 L25.4456,24.8991 C25.5717,24.773 25.7724,24.7619 25.9117,24.8733 Z" id="Path"></path>
            <path d="M22.326,21.584 L23.5634,22.8215 C23.7001,22.9581 23.7001,23.1798 23.5634,23.3164 L23.3159,23.5639 C23.1793,23.7006 22.9577,23.7006 22.821,23.5639 L21.5835,22.3265 C21.4468,22.1898 21.4468,21.9682 21.5835,21.8315 L21.831,21.584 C21.9677,21.4473 22.1893,21.4473 22.326,21.584 Z" id="Path"></path>
            <path d="M31.7717,25.1158 L32.9772,22.2056 C33.0511,22.027 33.2559,21.9422 33.4345,22.0162 L34.0812,22.284 C34.2598,22.358 34.3446,22.5627 34.2706,22.7413 L33.0651,25.6515 C32.9912,25.8301 32.7864,25.9149 32.6079,25.841 L31.9611,25.5731 C31.7826,25.4991 31.6977,25.2944 31.7717,25.1158 Z" id="Path"></path>
            <path d="M28.0928,21.0921 L30.4605,21.7781 C30.6609,21.8362 30.7663,22.0555 30.6865,22.2482 L30.1821,23.4658 C30.1023,23.6586 29.8727,23.7391 29.6899,23.6385 L27.5306,22.4494 C27.3744,22.3634 27.3078,22.1737 27.3761,22.0089 L27.6721,21.2943 C27.7403,21.1295 27.9216,21.0424 28.0928,21.0921 Z" id="Path"></path>
            <path d="M23.5213,19.4253 L25.1381,20.095 C25.3167,20.169 25.4015,20.3738 25.3275,20.5523 L25.1936,20.8757 C25.1196,21.0543 24.9149,21.1391 24.7363,21.0651 L23.1195,20.3954 C22.9409,20.3214 22.8561,20.1167 22.9301,19.9381 L23.064,19.6148 C23.138,19.4362 23.3428,19.3514 23.5213,19.4253 Z" id="Path"></path>
            <path d="M33.6,19.0752 L33.6,15.9252 C33.6,15.7319 33.7567,15.5752 33.95,15.5752 L34.65,15.5752 C34.8433,15.5752 35,15.7319 35,15.9252 L35,19.0752 C35,19.2685 34.8433,19.4252 34.65,19.4252 L33.95,19.4252 C33.7567,19.4252 33.6,19.2685 33.6,19.0752 Z" id="Path"></path>
            <path d="M28.6614,16.7656 L31.1114,16.4934 C31.3187,16.4703 31.5,16.6326 31.5,16.8412 L31.5,18.1592 C31.5,18.3678 31.3187,18.53 31.1114,18.507 L28.6614,18.2348 C28.4841,18.2151 28.35,18.0653 28.35,17.8869 L28.35,17.1135 C28.35,16.9351 28.4841,16.7853 28.6614,16.7656 Z" id="Path"></path>
            <path d="M23.8,16.9752 L25.55,16.9752 C25.7433,16.9752 25.9,17.1319 25.9,17.3252 L25.9,17.6752 C25.9,17.8685 25.7433,18.0252 25.55,18.0252 L23.8,18.0252 C23.6067,18.0252 23.45,17.8685 23.45,17.6752 L23.45,17.3252 C23.45,17.1319 23.6067,16.9752 23.8,16.9752 Z" id="Path"></path>
            <path d="M32.9772,12.7937 L31.7717,9.8835 C31.6977,9.7049 31.7826,9.5002 31.9611,9.4262 L32.6079,9.1584 C32.7864,9.0844 32.9912,9.1692 33.0652,9.3478 L34.2706,12.258 C34.3446,12.4366 34.2598,12.6413 34.0812,12.7153 L33.4345,12.9832 C33.2559,13.0571 33.0511,12.9723 32.9772,12.7937 Z" id="Path"></path>
            <path d="M27.5306,12.5499 L29.6899,11.3608 C29.8727,11.2602 30.1023,11.3408 30.1821,11.5335 L30.6865,12.7511 C30.7663,12.9438 30.6609,13.1631 30.4605,13.2212 L28.0928,13.9073 C27.9216,13.9569 27.7403,13.8698 27.6721,13.705 L27.3761,12.9904 C27.3078,12.8257 27.3744,12.6359 27.5306,12.5499 Z" id="Path"></path>
            <path d="M23.1195,14.6039 L24.7363,13.9342 C24.9149,13.8602 25.1196,13.945 25.1936,14.1236 L25.3275,14.447 C25.4015,14.6256 25.3167,14.8303 25.1381,14.9043 L23.5213,15.574 C23.3428,15.6479 23.138,15.5631 23.064,15.3846 L22.9301,15.0612 C22.8561,14.8826 22.9409,14.6779 23.1195,14.6039 Z" id="Path"></path>
            <path d="M29.9981,7.2295 L27.7707,5.00208 C27.634,4.8654 27.634,4.64379 27.7707,4.50711 L28.2657,4.01214 C28.4024,3.87545 28.624,3.87545 28.7607,4.01214 L30.9881,6.2395 C31.1247,6.3762 31.1247,6.5978 30.9881,6.7345 L30.4931,7.2295 C30.3564,7.3662 30.1348,7.3662 29.9981,7.2295 Z" id="Path"></path>
            <path d="M24.8728,9.0885 L26.4127,7.1636 C26.5431,7.0007 26.786,6.9872 26.9335,7.1347 L27.8654,8.0667 C28.0129,8.2142 27.9995,8.4571 27.8366,8.5874 L25.9117,10.1274 C25.7724,10.2388 25.5717,10.2277 25.4456,10.1015 L24.8986,9.5546 C24.7725,9.4285 24.7614,9.2278 24.8728,9.0885 Z" id="Path"></path>
            <path d="M21.5835,12.6742 L22.821,11.4368 C22.9577,11.3001 23.1793,11.3001 23.316,11.4368 L23.5634,11.6842 C23.7001,11.8209 23.7001,12.0425 23.5634,12.1792 L22.326,13.4167 C22.1893,13.5533 21.9677,13.5533 21.831,13.4167 L21.5835,13.1692 C21.4469,13.0325 21.4469,12.8109 21.5835,12.6742 Z" id="Path"></path>
            <path d="M25.1163,3.22853 L22.2061,2.02307 C22.0275,1.9491 21.9427,1.74436 22.0166,1.56578 L22.2845,0.91906 C22.3585,0.74048 22.5632,0.65567 22.7418,0.72964 L25.652,1.93509 C25.8306,2.00907 25.9154,2.21381 25.8415,2.39239 L25.5736,3.03911 C25.4996,3.21769 25.2949,3.3025 25.1163,3.22853 Z" id="Path"></path>
            <path d="M21.0926,6.9074 L21.7786,4.53972 C21.8367,4.33936 22.056,4.23394 22.2487,4.31377 L23.4663,4.81812 C23.6591,4.89795 23.7396,5.12757 23.639,5.3103 L22.4499,7.4696 C22.3639,7.6259 22.1741,7.6924 22.0094,7.6242 L21.2948,7.3282 C21.13,7.2599 21.0429,7.0787 21.0926,6.9074 Z" id="Path"></path>
            <path d="M19.4258,11.4789 L20.0955,9.8621 C20.1695,9.6835 20.3742,9.5987 20.5528,9.6727 L20.8762,9.8066 C21.0548,9.8806 21.1396,10.0853 21.0656,10.2639 L20.3959,11.8807 C20.3219,12.0593 20.1172,12.1441 19.9386,12.0701 L19.6153,11.9362 C19.4367,11.8622 19.3519,11.6575 19.4258,11.4789 Z" id="Path"></path>
            <path d="M58.1319,29.354 C56.4583,29.354 54.9026,29.0644 53.465,28.485 C52.0488,27.8842 50.7935,27.0581 49.6992,26.0067 C48.6263,24.9338 47.7895,23.7 47.1887,22.3053 C46.6093,20.8891 46.3196,19.3656 46.3196,17.7349 C46.3196,16.1041 46.6093,14.5913 47.1887,13.1966 C47.7895,11.7804 48.6263,10.5466 49.6992,9.4952 C50.7935,8.4223 52.0595,7.5962 53.4971,7.0169 C54.9348,6.4161 56.4797,6.1157 58.1319,6.1157 C59.3121,6.1157 60.4601,6.2766 61.5759,6.5984 C62.7131,6.8989 63.7538,7.3387 64.6979,7.9181 C65.6635,8.4974 66.5003,9.1948 67.2084,10.0102 L64.9554,12.3276 C64.1186,11.3191 63.0993,10.5573 61.8977,10.0424 C60.6961,9.5059 59.4408,9.2377 58.1319,9.2377 C56.9303,9.2377 55.8145,9.4523 54.7846,9.8814 C53.7761,10.3106 52.8963,10.9114 52.1453,11.6839 C51.3943,12.4349 50.8042,13.3254 50.3751,14.3553 C49.9674,15.3853 49.7635,16.5118 49.7635,17.7349 C49.7635,18.9365 49.9674,20.0523 50.3751,21.0822 C50.8042,22.1122 51.405,23.0134 52.1775,23.7858 C52.95,24.5583 53.8512,25.1591 54.8811,25.5883 C55.9111,26.0174 57.0269,26.232 58.2285,26.232 C59.5374,26.232 60.7712,25.9745 61.9299,25.4595 C63.1101,24.9231 64.1078,24.1721 64.9232,23.2065 L67.1441,25.4595 C66.3931,26.2534 65.5348,26.9508 64.5692,27.5516 C63.625,28.131 62.5951,28.5816 61.4793,28.9034 C60.385,29.2038 59.2692,29.354 58.1319,29.354 Z M73.0253,29 L73.0253,6.4697 L83.2283,6.4697 C84.7304,6.4697 86.0393,6.7486 87.155,7.3065 C88.2923,7.8644 89.172,8.6476 89.7943,9.6561 C90.438,10.6432 90.7599,11.8019 90.7599,13.1322 C90.7599,14.6128 90.3415,15.8895 89.5046,16.9624 C88.6678,18.0353 87.5413,18.8077 86.1251,19.2798 L91.1461,29 L87.4125,29 L82.7455,19.7626 L76.4049,19.7626 L76.4049,29 L73.0253,29 Z M76.4049,16.9302 L82.9708,16.9302 C84.3012,16.9302 85.3633,16.5976 86.1573,15.9324 C86.9727,15.2458 87.3803,14.3231 87.3803,13.1644 C87.3803,12.0486 86.9727,11.1474 86.1573,10.4608 C85.3633,9.7741 84.3012,9.4308 82.9708,9.4308 L76.4049,9.4308 L76.4049,16.9302 Z M96.8167,29 L96.8167,6.4697 L113.425,6.4697 L113.425,9.4308 L100.196,9.4308 L100.196,16.1899 L108.886,16.1899 L108.886,19.0545 L100.196,19.0545 L100.196,26.0389 L113.553,26.0389 L113.553,29 L96.8167,29 Z M122.982,25.9745 L127.617,25.9745 C128.797,25.9745 129.891,25.7707 130.9,25.363 C131.908,24.9338 132.788,24.3545 133.539,23.6249 C134.311,22.8739 134.901,22.0049 135.309,21.0178 C135.738,20.0093 135.953,18.915 135.953,17.7349 C135.953,16.5762 135.738,15.4926 135.309,14.4841 C134.901,13.4756 134.311,12.6065 133.539,11.877 C132.788,11.126 131.908,10.5466 130.9,10.1389 C129.891,9.7098 128.797,9.4952 127.617,9.4952 L122.982,9.4952 L122.982,25.9745 Z M119.602,29 L119.602,6.4697 L127.552,6.4697 C129.247,6.4697 130.814,6.7594 132.251,7.3387 C133.689,7.8966 134.944,8.6798 136.017,9.6883 C137.09,10.6968 137.927,11.8877 138.528,13.261 C139.128,14.6343 139.429,16.1255 139.429,17.7349 C139.429,19.3656 139.128,20.8676 138.528,22.2409 C137.948,23.5927 137.122,24.7729 136.049,25.7814 C134.976,26.7899 133.71,27.5838 132.251,28.1632 C130.814,28.7211 129.247,29 127.552,29 L119.602,29 Z M142.146,29 L151.448,6.4697 L155.439,6.4697 L164.644,29 L160.975,29 L158.368,22.4018 L148.294,22.4018 L145.655,29 L142.146,29 Z M149.388,19.6016 L157.274,19.6016 L153.347,9.6883 L149.388,19.6016 Z M169.542,29 L169.542,6.4697 L172.922,6.4697 L172.922,26.0067 L185.893,26.0067 L185.893,29 L169.542,29 Z" id="Shape"></path>
        </g>
    </g>
</svg>